<svg width="177" height="56" viewBox="0 0 177 56" fill="none" xmlns="http://www.w3.org/2000/svg">
<path d="M3 9.16V14.38H8.3V15.54H3V20.84H8.9V22H1.6V8H8.9V9.16H3ZM13.2586 13.02C13.5653 12.34 14.0319 11.8133 14.6586 11.44C15.2986 11.0667 16.0786 10.88 16.9986 10.88V12.34H16.6186C15.6053 12.34 14.7919 12.6133 14.1786 13.16C13.5653 13.7067 13.2586 14.62 13.2586 15.9V22H11.8586V11.08H13.2586V13.02ZM33.933 12.04C33.933 13.24 33.5396 14.2067 32.753 14.94C31.9663 15.6733 30.7863 16.04 29.213 16.04H26.393V22H24.993V8.02H29.213C30.773 8.02 31.9463 8.38667 32.733 9.12C33.533 9.85333 33.933 10.8267 33.933 12.04ZM29.213 14.84C31.3996 14.84 32.493 13.9067 32.493 12.04C32.493 11.1067 32.233 10.4 31.713 9.92C31.193 9.44 30.3596 9.2 29.213 9.2H26.393V14.84H29.213ZM37.882 13.02C38.1887 12.34 38.6554 11.8133 39.282 11.44C39.922 11.0667 40.702 10.88 41.622 10.88V12.34H41.242C40.2287 12.34 39.4154 12.6133 38.802 13.16C38.1887 13.7067 37.882 14.62 37.882 15.9V22H36.482V11.08H37.882V13.02ZM43.2881 16.52C43.2881 15.4 43.5081 14.42 43.9481 13.58C44.4015 12.7267 45.0215 12.0733 45.8081 11.62C46.6081 11.1533 47.5081 10.92 48.5081 10.92C49.5481 10.92 50.4415 11.16 51.1881 11.64C51.9481 12.12 52.4948 12.7333 52.8281 13.48V11.08H54.2281V22H52.8281V19.58C52.4815 20.3267 51.9281 20.9467 51.1681 21.44C50.4215 21.92 49.5281 22.16 48.4881 22.16C47.5015 22.16 46.6081 21.9267 45.8081 21.46C45.0215 20.9933 44.4015 20.3333 43.9481 19.48C43.5081 18.6267 43.2881 17.64 43.2881 16.52ZM52.8281 16.54C52.8281 15.66 52.6481 14.8867 52.2881 14.22C51.9281 13.5533 51.4348 13.04 50.8081 12.68C50.1948 12.32 49.5148 12.14 48.7681 12.14C47.9948 12.14 47.3015 12.3133 46.6881 12.66C46.0748 13.0067 45.5881 13.5133 45.2281 14.18C44.8815 14.8333 44.7081 15.6133 44.7081 16.52C44.7081 17.4133 44.8815 18.2 45.2281 18.88C45.5881 19.5467 46.0748 20.06 46.6881 20.42C47.3015 20.7667 47.9948 20.94 48.7681 20.94C49.5148 20.94 50.1948 20.76 50.8081 20.4C51.4348 20.04 51.9281 19.5267 52.2881 18.86C52.6481 18.1933 52.8281 17.42 52.8281 16.54ZM58.4242 9.02C58.1442 9.02 57.9042 8.92 57.7042 8.72C57.5042 8.52 57.4042 8.27333 57.4042 7.98C57.4042 7.68667 57.5042 7.44667 57.7042 7.26C57.9042 7.06 58.1442 6.96 58.4242 6.96C58.7042 6.96 58.9376 7.06 59.1242 7.26C59.3242 7.44667 59.4242 7.68667 59.4242 7.98C59.4242 8.27333 59.3242 8.52 59.1242 8.72C58.9376 8.92 58.7042 9.02 58.4242 9.02ZM59.1042 24.58C59.1042 25.46 58.8842 26.1067 58.4442 26.52C58.0042 26.9467 57.3442 27.16 56.4642 27.16H55.4842V25.96H56.2442C56.7642 25.96 57.1376 25.8467 57.3642 25.62C57.5909 25.4067 57.7042 25.04 57.7042 24.52V11.08H59.1042V24.58ZM72.3917 15.98C72.3917 16.46 72.3784 16.8267 72.3517 17.08H63.2917C63.3317 17.9067 63.5317 18.6133 63.8917 19.2C64.2517 19.7867 64.7251 20.2333 65.3117 20.54C65.8984 20.8333 66.5384 20.98 67.2317 20.98C68.1384 20.98 68.8984 20.76 69.5117 20.32C70.1384 19.88 70.5517 19.2867 70.7517 18.54H72.2317C71.9651 19.6067 71.3917 20.48 70.5117 21.16C69.6451 21.8267 68.5517 22.16 67.2317 22.16C66.2051 22.16 65.2851 21.9333 64.4717 21.48C63.6584 21.0133 63.0184 20.36 62.5517 19.52C62.0984 18.6667 61.8717 17.6733 61.8717 16.54C61.8717 15.4067 62.0984 14.4133 62.5517 13.56C63.0051 12.7067 63.6384 12.0533 64.4517 11.6C65.2651 11.1467 66.1917 10.92 67.2317 10.92C68.2717 10.92 69.1784 11.1467 69.9517 11.6C70.7384 12.0533 71.3384 12.6667 71.7517 13.44C72.1784 14.2 72.3917 15.0467 72.3917 15.98ZM70.9717 15.94C70.9851 15.1267 70.8184 14.4333 70.4717 13.86C70.1384 13.2867 69.6784 12.8533 69.0917 12.56C68.5051 12.2667 67.8651 12.12 67.1717 12.12C66.1317 12.12 65.2451 12.4533 64.5117 13.12C63.7784 13.7867 63.3717 14.7267 63.2917 15.94H70.9717ZM78.9131 22.16C77.6598 22.16 76.6331 21.8733 75.8331 21.3C75.0465 20.7133 74.6065 19.92 74.5131 18.92H75.9531C76.0198 19.5333 76.3065 20.0333 76.8131 20.42C77.3331 20.7933 78.0265 20.98 78.8931 20.98C79.6531 20.98 80.2465 20.8 80.6731 20.44C81.1131 20.08 81.3331 19.6333 81.3331 19.1C81.3331 18.7267 81.2131 18.42 80.9731 18.18C80.7331 17.94 80.4265 17.7533 80.0531 17.62C79.6931 17.4733 79.1998 17.32 78.5731 17.16C77.7598 16.9467 77.0998 16.7333 76.5931 16.52C76.0865 16.3067 75.6531 15.9933 75.2931 15.58C74.9465 15.1533 74.7731 14.5867 74.7731 13.88C74.7731 13.3467 74.9331 12.8533 75.2531 12.4C75.5731 11.9467 76.0265 11.5867 76.6131 11.32C77.1998 11.0533 77.8665 10.92 78.6131 10.92C79.7865 10.92 80.7331 11.22 81.4531 11.82C82.1731 12.4067 82.5598 13.22 82.6131 14.26H81.2131C81.1731 13.62 80.9198 13.1067 80.4531 12.72C79.9998 12.32 79.3731 12.12 78.5731 12.12C77.8665 12.12 77.2931 12.2867 76.8531 12.62C76.4131 12.9533 76.1931 13.3667 76.1931 13.86C76.1931 14.2867 76.3198 14.64 76.5731 14.92C76.8398 15.1867 77.1665 15.4 77.5531 15.56C77.9398 15.7067 78.4598 15.8733 79.1131 16.06C79.8998 16.2733 80.5265 16.48 80.9931 16.68C81.4598 16.88 81.8598 17.1733 82.1931 17.56C82.5265 17.9467 82.6998 18.46 82.7131 19.1C82.7131 19.6867 82.5531 20.2133 82.2331 20.68C81.9131 21.1333 81.4665 21.4933 80.8931 21.76C80.3198 22.0267 79.6598 22.16 78.9131 22.16ZM90.7484 10.88C91.5751 10.88 92.3151 11.0533 92.9684 11.4C93.6351 11.7467 94.1551 12.28 94.5284 13C94.9151 13.7067 95.1084 14.5733 95.1084 15.6V22H93.7284V15.76C93.7284 14.5733 93.4284 13.6667 92.8284 13.04C92.2418 12.4133 91.4351 12.1 90.4084 12.1C89.3551 12.1 88.5151 12.4333 87.8884 13.1C87.2618 13.7667 86.9484 14.7467 86.9484 16.04V22H85.5484V7.2H86.9484V12.94C87.2951 12.2867 87.8018 11.78 88.4684 11.42C89.1484 11.06 89.9084 10.88 90.7484 10.88ZM115.093 12.1C114.693 11.18 114.08 10.46 113.253 9.94C112.44 9.40667 111.48 9.14 110.373 9.14C109.333 9.14 108.4 9.38 107.573 9.86C106.746 10.34 106.093 11.0267 105.613 11.92C105.133 12.8 104.893 13.8267 104.893 15C104.893 16.1733 105.133 17.2067 105.613 18.1C106.093 18.9933 106.746 19.68 107.573 20.16C108.4 20.64 109.333 20.88 110.373 20.88C111.346 20.88 112.22 20.6733 112.993 20.26C113.78 19.8333 114.406 19.2333 114.873 18.46C115.353 17.6733 115.626 16.76 115.693 15.72H109.813V14.58H117.173V15.6C117.106 16.8267 116.773 17.94 116.173 18.94C115.573 19.9267 114.766 20.7067 113.753 21.28C112.753 21.8533 111.626 22.14 110.373 22.14C109.08 22.14 107.906 21.84 106.853 21.24C105.8 20.6267 104.966 19.78 104.353 18.7C103.753 17.6067 103.453 16.3733 103.453 15C103.453 13.6267 103.753 12.4 104.353 11.32C104.966 10.2267 105.8 9.38 106.853 8.78C107.906 8.16667 109.08 7.86 110.373 7.86C111.866 7.86 113.173 8.23333 114.293 8.98C115.413 9.72667 116.226 10.7667 116.733 12.1H115.093ZM119.298 16.52C119.298 15.4 119.518 14.42 119.958 13.58C120.411 12.7267 121.031 12.0733 121.818 11.62C122.618 11.1533 123.518 10.92 124.518 10.92C125.558 10.92 126.451 11.16 127.198 11.64C127.958 12.12 128.504 12.7333 128.838 13.48V11.08H130.238V22H128.838V19.58C128.491 20.3267 127.938 20.9467 127.178 21.44C126.431 21.92 125.538 22.16 124.498 22.16C123.511 22.16 122.618 21.9267 121.818 21.46C121.031 20.9933 120.411 20.3333 119.958 19.48C119.518 18.6267 119.298 17.64 119.298 16.52ZM128.838 16.54C128.838 15.66 128.658 14.8867 128.298 14.22C127.938 13.5533 127.444 13.04 126.818 12.68C126.204 12.32 125.524 12.14 124.778 12.14C124.004 12.14 123.311 12.3133 122.698 12.66C122.084 13.0067 121.598 13.5133 121.238 14.18C120.891 14.8333 120.718 15.6133 120.718 16.52C120.718 17.4133 120.891 18.2 121.238 18.88C121.598 19.5467 122.084 20.06 122.698 20.42C123.311 20.7667 124.004 20.94 124.778 20.94C125.524 20.94 126.204 20.76 126.818 20.4C127.444 20.04 127.938 19.5267 128.298 18.86C128.658 18.1933 128.838 17.42 128.838 16.54ZM138.754 10.88C140.06 10.88 141.127 11.2867 141.954 12.1C142.78 12.9 143.194 14.0667 143.194 15.6V22H141.814V15.76C141.814 14.5733 141.514 13.6667 140.914 13.04C140.327 12.4133 139.52 12.1 138.494 12.1C137.44 12.1 136.6 12.4333 135.974 13.1C135.347 13.7667 135.034 14.7467 135.034 16.04V22H133.634V11.08H135.034V12.94C135.38 12.2733 135.88 11.7667 136.534 11.42C137.187 11.06 137.927 10.88 138.754 10.88ZM145.85 16.52C145.85 15.4 146.077 14.42 146.53 13.58C146.983 12.7267 147.603 12.0733 148.39 11.62C149.19 11.1533 150.09 10.92 151.09 10.92C152.05 10.92 152.917 11.1533 153.69 11.62C154.463 12.0867 155.03 12.6933 155.39 13.44V7.2H156.79V22H155.39V19.56C155.057 20.32 154.51 20.9467 153.75 21.44C152.99 21.92 152.097 22.16 151.07 22.16C150.07 22.16 149.17 21.9267 148.37 21.46C147.583 20.9933 146.963 20.3333 146.51 19.48C146.07 18.6267 145.85 17.64 145.85 16.52ZM155.39 16.54C155.39 15.66 155.21 14.8867 154.85 14.22C154.49 13.5533 153.997 13.04 153.37 12.68C152.757 12.32 152.077 12.14 151.33 12.14C150.557 12.14 149.863 12.3133 149.25 12.66C148.637 13.0067 148.15 13.5133 147.79 14.18C147.443 14.8333 147.27 15.6133 147.27 16.52C147.27 17.4133 147.443 18.2 147.79 18.88C148.15 19.5467 148.637 20.06 149.25 20.42C149.863 20.7667 150.557 20.94 151.33 20.94C152.077 20.94 152.757 20.76 153.37 20.4C153.997 20.04 154.49 19.5267 154.85 18.86C155.21 18.1933 155.39 17.42 155.39 16.54ZM165.386 10.88C166.213 10.88 166.953 11.0533 167.606 11.4C168.273 11.7467 168.793 12.28 169.166 13C169.553 13.7067 169.746 14.5733 169.746 15.6V22H168.366V15.76C168.366 14.5733 168.066 13.6667 167.466 13.04C166.879 12.4133 166.073 12.1 165.046 12.1C163.993 12.1 163.153 12.4333 162.526 13.1C161.899 13.7667 161.586 14.7467 161.586 16.04V22H160.186V7.2H161.586V12.94C161.933 12.2867 162.439 11.78 163.106 11.42C163.786 11.06 164.546 10.88 165.386 10.88ZM173.742 9.02C173.462 9.02 173.222 8.92 173.022 8.72C172.822 8.52 172.722 8.27333 172.722 7.98C172.722 7.68667 172.822 7.44667 173.022 7.26C173.222 7.06 173.462 6.96 173.742 6.96C174.022 6.96 174.262 7.06 174.462 7.26C174.662 7.44667 174.762 7.68667 174.762 7.98C174.762 8.27333 174.662 8.52 174.462 8.72C174.262 8.92 174.022 9.02 173.742 9.02ZM174.442 11.08V22H173.042V11.08H174.442Z" fill="#686262"/>
<path d="M17.24 41.74H13.2V45.88H11.08V41.74H7.04V39.82H11.08V35.68H13.2V39.82H17.24V41.74ZM23.5173 44.04C23.6507 44.7067 23.9373 45.2133 24.3773 45.56C24.8173 45.9067 25.4107 46.08 26.1573 46.08C27.104 46.08 27.7973 45.7067 28.2373 44.96C28.6773 44.2133 28.8973 42.94 28.8973 41.14C28.5773 41.5933 28.124 41.9467 27.5373 42.2C26.964 42.44 26.3373 42.56 25.6573 42.56C24.7907 42.56 24.004 42.3867 23.2973 42.04C22.5907 41.68 22.0307 41.1533 21.6173 40.46C21.2173 39.7533 21.0173 38.9 21.0173 37.9C21.0173 36.4333 21.444 35.2667 22.2973 34.4C23.164 33.52 24.3507 33.08 25.8573 33.08C27.6707 33.08 28.9573 33.6867 29.7173 34.9C30.4907 36.1 30.8773 37.9467 30.8773 40.44C30.8773 42.16 30.7307 43.5667 30.4373 44.66C30.1573 45.7533 29.664 46.58 28.9573 47.14C28.2507 47.7 27.2707 47.98 26.0173 47.98C24.5907 47.98 23.4907 47.6067 22.7173 46.86C21.944 46.1133 21.5107 45.1733 21.4173 44.04H23.5173ZM26.0573 40.64C26.8573 40.64 27.484 40.3933 27.9373 39.9C28.404 39.3933 28.6373 38.7267 28.6373 37.9C28.6373 36.98 28.3907 36.2667 27.8973 35.76C27.4173 35.24 26.7573 34.98 25.9173 34.98C25.0773 34.98 24.4107 35.2467 23.9173 35.78C23.4373 36.3 23.1973 36.9867 23.1973 37.84C23.1973 38.6533 23.4307 39.3267 23.8973 39.86C24.3773 40.38 25.0973 40.64 26.0573 40.64ZM33.2727 35.5V33.42H37.4327V48H35.1327V35.5H33.2727ZM49.0002 44.04C49.1335 44.7067 49.4202 45.2133 49.8602 45.56C50.3002 45.9067 50.8935 46.08 51.6402 46.08C52.5868 46.08 53.2802 45.7067 53.7202 44.96C54.1602 44.2133 54.3802 42.94 54.3802 41.14C54.0602 41.5933 53.6068 41.9467 53.0202 42.2C52.4468 42.44 51.8202 42.56 51.1402 42.56C50.2735 42.56 49.4868 42.3867 48.7802 42.04C48.0735 41.68 47.5135 41.1533 47.1002 40.46C46.7002 39.7533 46.5002 38.9 46.5002 37.9C46.5002 36.4333 46.9268 35.2667 47.7802 34.4C48.6468 33.52 49.8335 33.08 51.3402 33.08C53.1535 33.08 54.4402 33.6867 55.2002 34.9C55.9735 36.1 56.3602 37.9467 56.3602 40.44C56.3602 42.16 56.2135 43.5667 55.9202 44.66C55.6402 45.7533 55.1468 46.58 54.4402 47.14C53.7335 47.7 52.7535 47.98 51.5002 47.98C50.0735 47.98 48.9735 47.6067 48.2002 46.86C47.4268 46.1133 46.9935 45.1733 46.9002 44.04H49.0002ZM51.5402 40.64C52.3402 40.64 52.9668 40.3933 53.4202 39.9C53.8868 39.3933 54.1202 38.7267 54.1202 37.9C54.1202 36.98 53.8735 36.2667 53.3802 35.76C52.9002 35.24 52.2402 34.98 51.4002 34.98C50.5602 34.98 49.8935 35.2467 49.4002 35.78C48.9202 36.3 48.6802 36.9867 48.6802 37.84C48.6802 38.6533 48.9135 39.3267 49.3802 39.86C49.8602 40.38 50.5802 40.64 51.5402 40.64ZM58.7755 44.96V43.24L65.4955 33.6H68.2555V42.98H70.1155V44.96H68.2555V48H66.0155V44.96H58.7755ZM66.1155 35.92L61.3955 42.98H66.1155V35.92ZM72.2047 40.52C72.2047 38.2133 72.5914 36.4133 73.3647 35.12C74.1514 33.8133 75.498 33.16 77.4047 33.16C79.3114 33.16 80.6514 33.8133 81.4247 35.12C82.2114 36.4133 82.6047 38.2133 82.6047 40.52C82.6047 42.8533 82.2114 44.68 81.4247 46C80.6514 47.3067 79.3114 47.96 77.4047 47.96C75.498 47.96 74.1514 47.3067 73.3647 46C72.5914 44.68 72.2047 42.8533 72.2047 40.52ZM80.3647 40.52C80.3647 39.44 80.2914 38.5267 80.1447 37.78C80.0114 37.0333 79.7314 36.4267 79.3047 35.96C78.878 35.48 78.2447 35.24 77.4047 35.24C76.5647 35.24 75.9314 35.48 75.5047 35.96C75.078 36.4267 74.7914 37.0333 74.6447 37.78C74.5114 38.5267 74.4447 39.44 74.4447 40.52C74.4447 41.64 74.5114 42.58 74.6447 43.34C74.778 44.1 75.058 44.7133 75.4847 45.18C75.9247 45.6467 76.5647 45.88 77.4047 45.88C78.2447 45.88 78.878 45.6467 79.3047 45.18C79.7447 44.7133 80.0314 44.1 80.1647 43.34C80.298 42.58 80.3647 41.64 80.3647 40.52ZM87.6772 40.38C86.2905 39.6867 85.5972 38.5933 85.5972 37.1C85.5972 36.38 85.7772 35.72 86.1372 35.12C86.4972 34.52 87.0372 34.0467 87.7572 33.7C88.4772 33.34 89.3572 33.16 90.3972 33.16C91.4239 33.16 92.2972 33.34 93.0172 33.7C93.7505 34.0467 94.2972 34.52 94.6572 35.12C95.0172 35.72 95.1972 36.38 95.1972 37.1C95.1972 37.8467 95.0039 38.5067 94.6172 39.08C94.2439 39.64 93.7439 40.0733 93.1172 40.38C93.8772 40.66 94.4772 41.12 94.9172 41.76C95.3572 42.3867 95.5772 43.1267 95.5772 43.98C95.5772 44.8467 95.3572 45.6133 94.9172 46.28C94.4772 46.9467 93.8639 47.46 93.0772 47.82C92.2905 48.18 91.3972 48.36 90.3972 48.36C89.3972 48.36 88.5039 48.18 87.7172 47.82C86.9439 47.46 86.3372 46.9467 85.8972 46.28C85.4572 45.6133 85.2372 44.8467 85.2372 43.98C85.2372 43.1133 85.4572 42.3667 85.8972 41.74C86.3372 41.1133 86.9305 40.66 87.6772 40.38ZM93.0172 37.38C93.0172 36.6333 92.7839 36.06 92.3172 35.66C91.8505 35.26 91.2105 35.06 90.3972 35.06C89.5972 35.06 88.9639 35.26 88.4972 35.66C88.0305 36.06 87.7972 36.64 87.7972 37.4C87.7972 38.0667 88.0372 38.6133 88.5172 39.04C89.0105 39.4533 89.6372 39.66 90.3972 39.66C91.1572 39.66 91.7839 39.4467 92.2772 39.02C92.7705 38.5933 93.0172 38.0467 93.0172 37.38ZM90.3972 41.38C89.5172 41.38 88.7972 41.6 88.2372 42.04C87.6905 42.4667 87.4172 43.0867 87.4172 43.9C87.4172 44.66 87.6839 45.28 88.2172 45.76C88.7505 46.2267 89.4772 46.46 90.3972 46.46C91.3039 46.46 92.0172 46.22 92.5372 45.74C93.0705 45.26 93.3372 44.6467 93.3372 43.9C93.3372 43.1 93.0639 42.48 92.5172 42.04C91.9839 41.6 91.2772 41.38 90.3972 41.38ZM107.411 35.18L101.851 48H99.5511L105.171 35.42H97.7711V33.48H107.411V35.18ZM110.823 44.9C112.103 43.7933 113.109 42.8867 113.843 42.18C114.589 41.46 115.209 40.7133 115.703 39.94C116.196 39.1667 116.443 38.3933 116.443 37.62C116.443 36.82 116.249 36.1933 115.863 35.74C115.489 35.2867 114.896 35.06 114.083 35.06C113.296 35.06 112.683 35.3133 112.243 35.82C111.816 36.3133 111.589 36.98 111.563 37.82H109.363C109.403 36.3 109.856 35.14 110.723 34.34C111.603 33.5267 112.716 33.12 114.063 33.12C115.516 33.12 116.649 33.52 117.463 34.32C118.289 35.12 118.703 36.1867 118.703 37.52C118.703 38.48 118.456 39.4067 117.963 40.3C117.483 41.18 116.903 41.9733 116.223 42.68C115.556 43.3733 114.703 44.18 113.663 45.1L112.763 45.9H119.103V47.8H109.383V46.14L110.823 44.9ZM123.765 40.38C122.379 39.6867 121.685 38.5933 121.685 37.1C121.685 36.38 121.865 35.72 122.225 35.12C122.585 34.52 123.125 34.0467 123.845 33.7C124.565 33.34 125.445 33.16 126.485 33.16C127.512 33.16 128.385 33.34 129.105 33.7C129.839 34.0467 130.385 34.52 130.745 35.12C131.105 35.72 131.285 36.38 131.285 37.1C131.285 37.8467 131.092 38.5067 130.705 39.08C130.332 39.64 129.832 40.0733 129.205 40.38C129.965 40.66 130.565 41.12 131.005 41.76C131.445 42.3867 131.665 43.1267 131.665 43.98C131.665 44.8467 131.445 45.6133 131.005 46.28C130.565 46.9467 129.952 47.46 129.165 47.82C128.379 48.18 127.485 48.36 126.485 48.36C125.485 48.36 124.592 48.18 123.805 47.82C123.032 47.46 122.425 46.9467 121.985 46.28C121.545 45.6133 121.325 44.8467 121.325 43.98C121.325 43.1133 121.545 42.3667 121.985 41.74C122.425 41.1133 123.019 40.66 123.765 40.38ZM129.105 37.38C129.105 36.6333 128.872 36.06 128.405 35.66C127.939 35.26 127.299 35.06 126.485 35.06C125.685 35.06 125.052 35.26 124.585 35.66C124.119 36.06 123.885 36.64 123.885 37.4C123.885 38.0667 124.125 38.6133 124.605 39.04C125.099 39.4533 125.725 39.66 126.485 39.66C127.245 39.66 127.872 39.4467 128.365 39.02C128.859 38.5933 129.105 38.0467 129.105 37.38ZM126.485 41.38C125.605 41.38 124.885 41.6 124.325 42.04C123.779 42.4667 123.505 43.0867 123.505 43.9C123.505 44.66 123.772 45.28 124.305 45.76C124.839 46.2267 125.565 46.46 126.485 46.46C127.392 46.46 128.105 46.22 128.625 45.74C129.159 45.26 129.425 44.6467 129.425 43.9C129.425 43.1 129.152 42.48 128.605 42.04C128.072 41.6 127.365 41.38 126.485 41.38ZM133.979 44.96V43.24L140.699 33.6H143.459V42.98H145.319V44.96H143.459V48H141.219V44.96H133.979ZM141.319 35.92L136.599 42.98H141.319V35.92ZM147.409 40.52C147.409 38.2133 147.795 36.4133 148.569 35.12C149.355 33.8133 150.702 33.16 152.609 33.16C154.515 33.16 155.855 33.8133 156.629 35.12C157.415 36.4133 157.809 38.2133 157.809 40.52C157.809 42.8533 157.415 44.68 156.629 46C155.855 47.3067 154.515 47.96 152.609 47.96C150.702 47.96 149.355 47.3067 148.569 46C147.795 44.68 147.409 42.8533 147.409 40.52ZM155.569 40.52C155.569 39.44 155.495 38.5267 155.349 37.78C155.215 37.0333 154.935 36.4267 154.509 35.96C154.082 35.48 153.449 35.24 152.609 35.24C151.769 35.24 151.135 35.48 150.709 35.96C150.282 36.4267 149.995 37.0333 149.849 37.78C149.715 38.5267 149.649 39.44 149.649 40.52C149.649 41.64 149.715 42.58 149.849 43.34C149.982 44.1 150.262 44.7133 150.689 45.18C151.129 45.6467 151.769 45.88 152.609 45.88C153.449 45.88 154.082 45.6467 154.509 45.18C154.949 44.7133 155.235 44.1 155.369 43.34C155.502 42.58 155.569 41.64 155.569 40.52ZM160.141 44.96V43.24L166.861 33.6H169.621V42.98H171.481V44.96H169.621V48H167.381V44.96H160.141ZM167.481 35.92L162.761 42.98H167.481V35.92Z" fill="#686262"/>
</svg>
